<?xml version="1.0" encoding="iso-8859-1"?>
<!-- Generator: Adobe Illustrator 19.0.0, SVG Export Plug-In . SVG Version: 6.00 Build 0)  -->
<svg version="1.1" id="Layer_1" xmlns="http://www.w3.org/2000/svg" xmlns:xlink="http://www.w3.org/1999/xlink" x="0px" y="0px"
	 viewBox="0 0 511.989 511.989" style="enable-background:new 0 0 511.989 511.989;" xml:space="preserve">
<path style="fill:#A0D468;" d="M369.85,353.85l50-18.671c0,0-4.391-58.296-5.516-58.483c-1.14-0.187-41.14-70.842-41.14-70.842
	l-87.998-43.999l-50.67-9.344l-60.671,27.344l-55.999,57.998L95.997,331.18l40.53,11.328l3.328-53.327l19.343-49.999l46.655-33.999
	l48.343-5.625l48.999,2.953l35.999,30l30.655,47.342v39.999L369.85,353.85L369.85,353.85z"/>
<polygon style="fill:#FC6E51;" points="460.521,330.509 456.521,289.853 436.521,219.183 409.85,183.559 361.85,139.185 
	280.524,114.514 246.526,114.514 206.527,121.857 159.2,141.185 127.997,155.184 95.998,195.184 64.53,260.51 47.858,301.181 
	80.53,335.181 95.998,304.242 109.857,246.511 149.856,186.653 207.199,160.513 285.196,153.855 346.523,183.559 383.991,207.183 
	409.194,255.183 419.85,299.852 419.85,335.181 "/>
<path style="fill:#5D9CEC;" d="M153.184,343.102c-2.516-9.062-3.859-18.594-3.859-28.438c0-58.826,47.843-106.669,106.669-106.669
	c58.812,0,106.653,47.843,106.653,106.669c0,9.844-1.344,19.375-3.859,28.438h22c2.094-9.156,3.203-18.672,3.203-28.438
	c0-70.592-57.42-128.012-127.997-128.012c-70.592,0-127.997,57.42-127.997,128.012c0,9.766,1.094,19.281,3.188,28.438H153.184z"/>
<path style="fill:#FFCE54;" d="M109.357,343.102c-1.781-9.281-2.703-18.781-2.703-28.438c0-39.89,15.531-77.389,43.733-105.606
	c28.218-28.202,65.718-43.733,105.607-43.733c39.874,0,77.373,15.531,105.591,43.733c28.203,28.218,43.734,65.717,43.734,105.606
	c0,9.656-0.922,19.156-2.703,28.438h21.688c1.547-9.312,2.344-18.812,2.344-28.438c0-45.592-17.75-88.45-49.984-120.684
	c-32.233-32.234-75.092-49.983-120.669-49.983c-45.592,0-88.451,17.749-120.685,49.983c-32.233,32.233-49.983,75.092-49.983,120.684
	c0,9.625,0.796,19.125,2.359,28.438H109.357z"/>
<path style="fill:#ED5564;" d="M66.077,343.102c-1.391-9.328-2.078-18.828-2.078-28.438c0-51.295,19.968-99.513,56.233-135.777
	c36.249-36.249,84.467-56.233,135.762-56.233c51.28,0,99.497,19.984,135.747,56.233c36.265,36.265,56.249,84.482,56.249,135.777
	c0,9.609-0.703,19.109-2.094,28.438h21.531c1.25-9.359,1.891-18.844,1.891-28.438c0-56.982-22.188-110.56-62.483-150.855
	c-40.297-40.296-93.873-62.482-150.841-62.482c-56.982,0-110.56,22.187-150.856,62.482c-40.295,40.296-62.482,93.874-62.482,150.856
	c0,9.594,0.641,19.078,1.891,28.438h21.53V343.102z"/>
<g>
	<path style="fill:#E6E9ED;" d="M149.325,325.32h-23.281c-4.484-12.266-16.312-21.078-30.046-21.078
		c-6.641,0-12.937,2.016-18.218,5.672c-7.5-3.891-15.828-5.922-24.453-5.922C23.921,303.992,0,327.914,0,357.319
		s23.921,53.343,53.327,53.343h95.998c23.515,0,42.671-19.141,42.671-42.671S172.84,325.32,149.325,325.32z"/>
	<path style="fill:#E6E9ED;" d="M458.646,303.992c-8.625,0-16.938,2.031-24.453,5.922c-5.281-3.656-11.577-5.672-18.202-5.672
		c-13.75,0-25.578,8.812-30.062,21.078h-23.281c-23.53,0-42.654,19.141-42.654,42.671s19.124,42.671,42.654,42.671h95.999
		c29.405,0,53.342-23.938,53.342-53.343S488.052,303.992,458.646,303.992z"/>
</g>
<g>
</g>
<g>
</g>
<g>
</g>
<g>
</g>
<g>
</g>
<g>
</g>
<g>
</g>
<g>
</g>
<g>
</g>
<g>
</g>
<g>
</g>
<g>
</g>
<g>
</g>
<g>
</g>
<g>
</g>
</svg>
